<svg xmlns="http://www.w3.org/2000/svg" viewBox="0 0 496.36 1569.59"><defs><style>.cls-1{fill:#add02c;}.cls-2{fill:#cd3d6e;}.cls-3{fill:#fff;}.cls-4{fill:#e2b980;}.cls-5{fill:#eecf9b;}</style></defs><title>Recurso 1</title><g id="Capa_2" data-name="Capa 2"><g id="Capa_2-2" data-name="Capa 2"><path class="cls-1" d="M488.35,572.37h-442s-51-25-46-134q.22-5.13.5-11c.79-17.67,1.88-40.05,4-65.26,4.23-50.57,12.59-112.54,31-170.82,11.87-37.57,27.94-73.6,49.8-104.06,15.52-21.64,34-40.46,55.89-55A186.77,186.77,0,0,1,193.69,8.14c27.89-8,59.92-10.46,96.66-5.77A91,91,0,0,0,270.63,12c-32.88,21.1-79.74,80.25,89.72,210.36,55.81,40,89.54,88,109.43,135.36C515.52,466.55,488.35,572.37,488.35,572.37Z"/><path class="cls-2" d="M85.43,572.37C89,504.71,37.8,454.53.85,427.37c.79-17.67,1.88-40.05,4-65.26,81.1,44.78,123.29,156.41,139.48,210.26Z"/><path class="cls-2" d="M228.06,572.37c3.77-27.68-14.13-88.42-139.71-214C47.07,317.1,35,253.78,35.87,191.29c11.87-37.57,27.94-73.6,49.8-104.06-11.73,57-17.14,177,100.68,291.14,107.82,104.49,127,165.13,127.84,194Z"/><path class="cls-2" d="M478.39,572.37H415c-3.39-61.51-35.12-150.22-160.68-238C86.68,217.15,115.5,90,141.56,32.21A186.77,186.77,0,0,1,193.69,8.14C97,146.4,249.36,227.72,357.35,300.37,446.56,360.39,472,515.79,478.39,572.37Z"/><path class="cls-2" d="M469.78,357.73c-74.4-105.06-206.47-147.6-248.43-246.36-40.56-95.44,22-101.06,49.28-99.36-32.88,21.1-79.74,80.25,89.72,210.36C416.16,262.4,449.89,310.35,469.78,357.73Z"/><path d="M110.35,393.37c0,36.45-21.94,66-49,66s-49-29.55-49-66,21.94-66,49-66A37.18,37.18,0,0,1,72.25,329c15.07,4.62,27.5,18.59,33.75,37.14A85.33,85.33,0,0,1,110.35,393.37Z"/><circle class="cls-3" cx="35.35" cy="393.37" r="14"/><path class="cls-3" d="M106,366.15A29,29,0,1,1,72.25,329C87.32,333.63,99.75,347.6,106,366.15Z"/><path d="M496.35,393.37c0,36.45-21.94,66-49,66s-49-29.55-49-66,21.94-66,49-66a37.18,37.18,0,0,1,10.9,1.64c15.07,4.62,27.5,18.59,33.75,37.14A85.33,85.33,0,0,1,496.35,393.37Z"/><circle class="cls-3" cx="421.35" cy="393.37" r="14"/><path class="cls-3" d="M492,366.15A29,29,0,1,1,458.25,329C473.32,333.63,485.75,347.6,492,366.15Z"/><path d="M220.73,430.23c-.22,5.77-.7,11.32-1.1,16.78s-.84,10.81-1.12,16.06-.4,10.4-.21,15.37.62,9.73,1.26,14.28,1.66,9,4.13,13a21.66,21.66,0,0,0,11.27,9,29,29,0,0,0,7.6,1.65l2,.17h2c1.32,0,2.66-.11,4-.19a62.23,62.23,0,0,0,15.58-3.79c2.52-.93,5-2,7.34-3l1.77-.81,1.72-.88c1.16-.54,2.24-1.19,3.35-1.76.56-.28,1.07-.61,1.6-.92s1.07-.59,1.58-.91c1-.67,2-1.26,3-1.94s1.86-1.35,2.77-2,1.7-1.43,2.43-2.2c6.19-6.12,7.92-13.31,7.76-22.15a72.83,72.83,0,0,0-1.87-14,148.19,148.19,0,0,0-4.31-14.79c-3.44-10-7.75-20.08-12.06-30.63l1.45-1.22a83.58,83.58,0,0,1,13.1,11.42,102.92,102.92,0,0,1,10.92,13.67,88.5,88.5,0,0,1,8.48,15.88,61.58,61.58,0,0,1,4.56,18.54,42.91,42.91,0,0,1-3.26,20.54,39.21,39.21,0,0,1-5.63,9.24,44.13,44.13,0,0,1-7.58,7.23,47.72,47.72,0,0,1-8.48,5.16,48.86,48.86,0,0,1-8.86,3.32,60.34,60.34,0,0,1-8.94,1.76c-1.49.22-3,.35-4.44.46s-2.95.18-4.41.26c-5.84.25-11.63.19-17.41,0a96,96,0,0,1-17.38-2.17,55.16,55.16,0,0,1-8.73-2.78,39.65,39.65,0,0,1-8.37-4.82,36.79,36.79,0,0,1-11.81-15.85,46.37,46.37,0,0,1-3-18.6,80.33,80.33,0,0,1,2.52-17.73,90.45,90.45,0,0,1,5.91-16.42A70.55,70.55,0,0,1,219,429.52Z"/><path class="cls-4" d="M408.35,784.37l-149-16-149,16-27,30,131,707s3,52,45,48c42,4,45-48,45-48l131-707Z"/><path class="cls-5" d="M109.34,786.44l17.93,17.93L109.35,822.3,91.91,804.86l-6.7,7.44,17.06,17.07L88.65,843l5.17,27.92,8.45,8.45-5.8,5.81,2.21,11.93,10.66-10.67,17.93,17.93L109.35,922.3,102,914.93l4.51,24.37,2.85-2.86,17.93,17.93L112.1,969.55l4.47,24.11,10.7,10.71-7.36,7.36,2.21,11.93,12.22-12.22,17.93,17.93-17.92,17.93-9.63-9.62,5.22,28.17,4.4-4.41,17.93,17.93-16.72,16.73,3.76,20.31,13,13-8.91,8.91,2.21,11.93,13.78-13.77,17.92,17.93-17.92,17.93-11.89-11.88,3.22,17.36,1.59,1.59-1.09,1.1,2.21,11.93,6-6,17.92,17.93-17.92,17.93-.51-.51,3.21,17.36,15.22,15.22-10.46,10.46,2.21,11.94,15.33-15.33,17.92,17.93-17.92,17.93-14.14-14.14,3.21,17.36,3.85,3.85-2.64,2.65,2.21,11.93,7.51-7.51,17.92,17.93-17.93,17.93-2.76-2.76,3.22,17.35,17.47,17.48-12,12,2.21,11.93,16.88-16.88,17.92,17.93-17.93,17.93L193,1405.91l3.22,17.35,6.1,6.11-4.19,4.2,2.21,11.93,9.06-9.06,17.92,17.93-17.93,17.93-5-5,3.78,20.4,1.25-1.24,17.92,17.93-13.56,13.57.64,3.43s.86,15,8.15,28.23l4.77,4.77-1,1a37.82,37.82,0,0,0,7,7.15l1.12-1.11,4.73,4.73a36.4,36.4,0,0,0,17.51,3.38l-15.17-15.18,17.93-17.93,17.92,17.93-15.17,15.18a36.4,36.4,0,0,0,17.51-3.38l4.74-4.73,1.11,1.11a37.82,37.82,0,0,0,7-7.15l-1-1,4.77-4.77c7.29-13.26,8.16-28.23,8.16-28.23l.63-3.43-13.56-13.57,17.93-17.93,1.24,1.24,3.78-20.4-5,5-17.93-17.93,17.93-17.93,9,9.06,2.21-11.93-4.19-4.2,6.1-6.11,3.22-17.35-16.39,16.39-17.93-17.93,17.93-17.93,16.87,16.88,2.21-11.93-12-12,17.47-17.48,3.22-17.35-2.77,2.76-17.92-17.93,17.93-17.93,7.5,7.51,2.21-11.93-2.64-2.65,3.85-3.85,3.21-17.36-14.14,14.14-17.92-17.93,17.93-17.93,15.32,15.33,2.21-11.93-10.46-10.47,15.22-15.22,3.21-17.36-.51.51-17.92-17.93,17.93-17.93,5.95,6,2.21-11.93-1.09-1.1,1.59-1.59,3.22-17.36-11.89,11.88-17.92-17.93,17.93-17.93,13.77,13.77,2.21-11.93-8.91-8.91,13-13,3.76-20.31-16.72-16.73,17.93-17.93,4.4,4.41,5.22-28.17-9.62,9.62-17.93-17.93,17.93-17.93,12.22,12.22,2.21-11.93-7.36-7.36,10.7-10.71,4.47-24.11-15.17-15.18,17.93-17.93,2.85,2.86,4.51-24.37-7.36,7.37-17.93-17.93,17.93-17.93L420,897.11l2.21-11.93-5.8-5.81,8.45-8.45L430,843l-13.62-13.63,17.06-17.07-6.69-7.44L409.35,822.3l-17.93-17.93,17.93-17.93,8.63,8.64-9.63-10.71-10-1.07-14,14L367,779.93l-15.84-1.7,1.14,1.14L334.35,797.3l-17.93-17.93,4.39-4.4-25.69-2.76,7.15,7.16L284.35,797.3l-17.93-17.93,9.24-9.25-12.77-1.37-3.54,3.55-3.55-3.55L243,770.12l9.24,9.25L234.35,797.3l-17.93-17.93,7.15-7.16L197.87,775l4.4,4.4L184.35,797.3l-17.93-17.93,1.14-1.14-15.84,1.7L134.35,797.3l-14-14-10,1.07-9.64,10.71ZM91.42,854.37l17.92-17.93,17.93,17.93L109.35,872.3Zm25,25,17.92-17.93,17.93,17.93L134.35,897.3ZM259.34,1422.3l-17.92-17.93,17.93-17.93,17.92,17.93Zm0,14.14,17.92,17.93-17.93,17.93-17.92-17.93Zm0-64.14-17.92-17.93,17.93-17.93,17.92,17.93Zm0-100-17.92-17.93,17.93-17.93,17.92,17.93Zm0,14.14,17.92,17.93-17.93,17.93-17.92-17.93Zm-17.93-82.07,17.93-17.93,17.92,17.93-17.92,17.93Zm0-100,17.93-17.93,17.92,17.93-17.92,17.93Zm35.85,50-17.92,17.93-17.93-17.93,17.93-17.93Zm-35.85-100,17.93-17.93,17.92,17.93-17.92,17.93Zm10.85-25-17.92,17.93-17.93-17.93,17.92-17.93Zm-10.85-25,17.92-17.93,17.93,17.93-17.92,17.93Zm25,25,17.93-17.93,17.92,17.93-17.92,17.93Zm0-50,17.92-17.93,17.93,17.93L284.35,997.3Zm-7.07-7.07-17.93-17.93,17.92-17.93,17.93,17.93Zm-7.08,7.07L234.35,997.3l-17.93-17.93,17.92-17.93Zm-42.92-7.07-17.93-17.93,17.92-17.93,17.93,17.93Zm17.92,32.07-17.92,17.93-17.93-17.93,17.92-17.93Zm0,50-17.92,17.93-17.93-17.93,17.92-17.93Zm7.08,7.07,17.92,17.93-17.92,17.93-17.93-17.93Zm17.92,67.93-17.92,17.93-17.93-17.93,17.93-17.93Zm0,50-17.92,17.93-17.93-17.93,17.93-17.93Zm14.15,0,17.93-17.93,17.92,17.93-17.92,17.93Zm0-50,17.93-17.93,17.92,17.93-17.92,17.93Zm0-50,17.93-17.93,17.92,17.93-17.92,17.93Zm25-25,17.93-17.93,17.92,17.93-17.92,17.93Zm0-50,17.93-17.93,17.92,17.93-17.92,17.93Zm0-50,17.92-17.93,17.93,17.93L309.35,972.3Zm25-25,17.92-17.93,17.93,17.93L334.35,947.3Zm-7.07-7.07-17.93-17.93,17.92-17.93,17.93,17.93Zm-7.08,7.07L284.35,947.3l-17.93-17.93,17.92-17.93Zm-42.92-7.07-17.93-17.93,17.92-17.93,17.93,17.93Zm-7.08,7.07L234.35,947.3l-17.93-17.93,17.92-17.93Zm-42.92-7.07-17.93-17.93,17.92-17.93,17.93,17.93Zm-7.08,7.07L184.35,947.3l-17.93-17.93,17.92-17.93Zm-42.92-7.07-17.93-17.93,17.92-17.93,17.93,17.93Zm17.92,32.07L159.35,972.3l-17.93-17.93,17.92-17.93Zm7.07,7.07,17.93,17.93L184.35,997.3l-17.93-17.93Zm17.93,67.93-17.92,17.93-17.93-17.93,17.92-17.93Zm0,50-17.92,17.93-17.93-17.93,17.92-17.93Zm7.08,7.07,17.92,17.93-17.92,17.93-17.93-17.93Zm17.92,67.93-17.92,17.93-17.93-17.93,17.93-17.93Zm0,50-17.92,17.93-17.93-17.93,17.93-17.93Zm7.08,7.07,17.92,17.93-17.92,17.93-17.93-17.93Zm17.92,67.93-17.93,17.93-17.92-17.93,17.93-17.93Zm-17.92,32.07,17.92,17.93-17.93,17.93-17.92-17.93Zm32.07,17.93,17.93-17.93,17.92,17.93-17.93,17.93Zm17.92-32.07-17.92-17.93,17.93-17.93,17.92,17.93Zm0-50-17.92-17.93,17.93-17.93,17.92,17.93Zm7.08-42.93,17.93-17.93,17.92,17.93-17.93,17.93Zm0-50,17.93-17.93,17.92,17.93-17.92,17.93Zm0-50,17.93-17.93,17.92,17.93-17.92,17.93Zm25-25,17.93-17.93,17.92,17.93-17.92,17.93Zm0-50,17.93-17.93,17.92,17.93-17.92,17.93Zm0-50,17.93-17.93,17.92,17.93L334.35,997.3Zm25-25,17.93-17.93,17.92,17.93L359.35,972.3Zm0-50,17.92-17.93,17.93,17.93L359.35,922.3Zm0-50,17.92-17.93,17.93,17.93L359.35,872.3Zm10.85,25L334.35,897.3l-17.93-17.93,17.92-17.93Zm-42.92-7.07-17.93-17.93,17.92-17.93,17.93,17.93Zm-7.08,7.07L284.35,897.3l-17.93-17.93,17.92-17.93Zm-42.92-7.07-17.93-17.93,17.92-17.93,17.93,17.93Zm-7.08,7.07L234.35,897.3l-17.93-17.93,17.92-17.93Zm-42.92-7.07-17.93-17.93,17.92-17.93,17.93,17.93Zm-7.08,7.07L184.35,897.3l-17.93-17.93,17.92-17.93Zm-42.92-7.07-17.93-17.93,17.92-17.93,17.93,17.93Zm-42.93,57.07,17.92-17.93,17.93,17.93L134.35,947.3Zm0,50,17.92-17.93,17.93,17.93L134.35,997.3Zm25,25,17.92-17.93,17.93,17.93-17.92,17.93Zm0,50,17.92-17.93,17.93,17.93-17.92,17.93Zm0,50,17.92-17.93,17.93,17.93-17.92,17.93Zm25,25,17.93-17.93,17.92,17.93-17.92,17.93Zm0,50,17.93-17.93,17.92,17.93-17.92,17.93Zm0,50,17.93-17.93,17.92,17.93-17.92,17.93Zm25,25,17.93-17.93,17.92,17.93-17.92,17.93Zm0,50,17.93-17.93,17.92,17.93-17.93,17.93Zm17.92,67.93-17.92-17.93,17.93-17.93,17.92,17.93Zm7.08,7.07,17.93-17.93,17.92,17.93-17.93,17.93Zm0,50,17.93-17.93,17.92,17.93-17.93,17.93Zm0,50,17.93-17.93,17.92,17.93-17.93,17.93Zm17.92,67.93-17.92-17.93,17.93-17.93,17.92,17.93Zm25-25-17.92-17.93,17.93-17.93,17.92,17.93Zm42.93,7.07-17.93,17.93-17.92-17.93,17.93-17.93Zm0-50-17.93,17.93-17.92-17.93,17.93-17.93Zm0-50-17.92,17.93-17.93-17.93,17.93-17.93Zm-17.93-32.07-17.92-17.93,17.93-17.93,17.92,17.93Zm42.93-42.93-17.93,17.93-17.92-17.93,17.93-17.93Zm0-50-17.93,17.93-17.92-17.93,17.93-17.93Zm-17.93-32.07-17.92-17.93,17.93-17.93,17.92,17.93Zm42.93-42.93-17.93,17.93-17.92-17.93,17.93-17.93Zm0-50-17.93,17.93-17.92-17.93,17.93-17.93Zm-17.92-32.07-17.93-17.93,17.93-17.93,17.92,17.93Zm42.92-42.93-17.92,17.93-17.93-17.93,17.93-17.93Zm0-50-17.92,17.93-17.93-17.93,17.93-17.93Zm-17.92-32.07-17.93-17.93,17.93-17.93,17.92,17.93Zm42.92-42.93L384.35,997.3l-17.93-17.93,17.93-17.93Zm0-50L384.35,947.3l-17.93-17.93,17.93-17.93ZM384.35,897.3l-17.93-17.93,17.93-17.93,17.92,17.93Zm42.92-42.93L409.35,872.3l-17.93-17.93,17.93-17.93Zm-25-25L384.35,847.3l-17.93-17.93,17.93-17.93Zm-42.93-42.93,17.93,17.93L359.35,822.3l-17.93-17.93Zm-7.07,42.93L334.35,847.3l-17.93-17.93,17.92-17.93Zm-42.93-42.93,17.93,17.93L309.35,822.3l-17.93-17.93Zm-7.07,42.93L284.35,847.3l-17.93-17.93,17.92-17.93Zm-42.93-42.93,17.93,17.93L259.35,822.3l-17.93-17.93Zm-7.07,42.93L234.35,847.3l-17.93-17.93,17.92-17.93Zm-42.93-42.93,17.93,17.93L209.35,822.3l-17.93-17.93Zm-7.07,42.93L184.35,847.3l-17.93-17.93,17.92-17.93Zm-42.93-42.93,17.93,17.93L159.35,822.3l-17.93-17.93Zm-7.07,42.93L134.35,847.3l-17.93-17.93,17.92-17.93Z"/><path class="cls-5" d="M283.35,1550.37c-42,4-45-48-45-48l-131-707L118,783.55l-7.63.82-27,30,131,707s3,52,45,48c19.38,1.85,30.45-8.24,36.76-19.63A41.52,41.52,0,0,1,283.35,1550.37Z"/><rect class="cls-4" x="26.35" y="599.37" width="466" height="194" rx="95"/><path class="cls-5" d="M422.35,782.37h-276c-52.25,0-95-42.75-95-95v-4a95.14,95.14,0,0,1,44.88-80.6c-40.16,11.08-69.88,48-69.88,91.6v4c0,52.25,42.75,95,95,95h276A94.27,94.27,0,0,0,447.46,779,94.69,94.69,0,0,1,422.35,782.37Z"/><rect class="cls-4" x="26.35" y="573.37" width="466" height="38" rx="12"/><path class="cls-5" d="M489.35,602.37h-442a12,12,0,0,1-12-12v-14a11.84,11.84,0,0,1,.31-2.68,12,12,0,0,0-9.31,11.68v14a12,12,0,0,0,12,12h442A12,12,0,0,0,492,602.06,11.91,11.91,0,0,1,489.35,602.37Z"/><rect class="cls-4" x="66.35" y="784.37" width="386" height="38" rx="12"/><path class="cls-5" d="M449.86,813.37H83.74c-5.47,0-9.94-5.4-9.94-12v-14a14.67,14.67,0,0,1,.26-2.68c-4.4,1.23-7.71,6-7.71,11.68v14c0,6.6,4.47,12,9.93,12H442.41c4.7,0,8.66-4,9.67-9.31A8.21,8.21,0,0,1,449.86,813.37Z"/></g></g></svg>